<svg xmlns="http://www.w3.org/2000/svg" width="256" height="256" viewBox="0 0 100 100"><rect width="100" height="100" rx="20" fill="#ebcf6f"></rect><path fill="#fff" d="M47.75 58.10L47.75 58.10Q47.75 63.14 46.31 67.19Q44.87 71.24 42.21 74.12Q39.56 77 35.78 78.53Q32.00 80.06 27.32 80.06L27.32 80.06Q22.64 80.06 18.86 78.53Q15.08 77 12.38 74.12Q9.68 71.24 8.24 67.19Q6.80 63.14 6.80 58.10L6.80 58.10Q6.80 53.06 8.28 49.01Q9.77 44.96 12.47 42.08Q15.17 39.20 18.95 37.67Q22.73 36.14 27.32 36.14L27.32 36.14Q31.91 36.14 35.69 37.67Q39.47 39.20 42.13 42.08Q44.78 44.96 46.27 49.01Q47.75 53.06 47.75 58.10ZM27.32 42.08L27.32 42.08Q21.20 42.08 17.69 46.31Q14.18 50.54 14.18 58.10L14.18 58.10Q14.18 65.75 17.64 69.94Q21.11 74.12 27.32 74.12L27.32 74.12Q33.53 74.12 36.95 69.89Q40.37 65.66 40.37 58.10L40.37 58.10Q40.37 50.54 36.91 46.31Q33.44 42.08 27.32 42.08ZM66.29 78.71L66.29 78.71Q65.84 78.89 64.94 79.11Q64.04 79.34 62.96 79.34L62.96 79.34Q59.09 79.34 59.09 76.10L59.09 76.10L59.09 20.57Q59.54 20.39 60.48 20.17Q61.43 19.94 62.51 19.94L62.51 19.94Q66.29 19.94 66.29 23.18L66.29 23.18L66.29 55.58L86 36.50Q88.16 36.59 89.38 37.54Q90.59 38.48 90.59 40.01L90.59 40.01Q90.59 41.27 89.78 42.22Q88.97 43.16 87.62 44.42L87.62 44.42L73.13 57.11L93.20 75.11Q93.02 77.09 91.98 78.26Q90.95 79.43 89.24 79.43L89.24 79.43Q87.89 79.43 86.76 78.75Q85.64 78.08 84.47 76.82L84.47 76.82L66.29 58.55L66.29 78.71Z"></path></svg>