<svg width="64" height="64" viewBox="0 0 64 64" fill="none" xmlns="http://www.w3.org/2000/svg">
<path d="M32.0234 32.668C32.0234 33.4648 31.918 34.2344 31.707 34.9766C31.5039 35.7109 31.2148 36.4023 30.8398 37.0508C30.4648 37.6914 30.0117 38.2773 29.4805 38.8086C28.9492 39.3398 28.3633 39.7969 27.7227 40.1797C27.082 40.5547 26.3906 40.8438 25.6484 41.0469C24.9062 41.2578 24.1367 41.3633 23.3398 41.3633C22.543 41.3633 21.7734 41.2578 21.0312 41.0469C20.2969 40.8438 19.6055 40.5547 18.957 40.1797C18.3164 39.7969 17.7305 39.3398 17.1992 38.8086C16.668 38.2773 16.2109 37.6914 15.8281 37.0508C15.4531 36.4023 15.1602 35.7109 14.9492 34.9766C14.7461 34.2344 14.6445 33.4648 14.6445 32.668C14.6445 31.8711 14.7461 31.1016 14.9492 30.3594C15.1602 29.6172 15.4531 28.9258 15.8281 28.2852C16.2109 27.6445 16.668 27.0586 17.1992 26.5273C17.7305 25.9961 18.3164 25.543 18.957 25.168C19.6055 24.793 20.2969 24.5039 21.0312 24.3008C21.7734 24.0898 22.543 23.9844 23.3398 23.9844C24.1367 23.9844 24.9062 24.0898 25.6484 24.3008C26.3906 24.5039 27.082 24.793 27.7227 25.168C28.3633 25.543 28.9492 25.9961 29.4805 26.5273C30.0117 27.0586 30.4648 27.6445 30.8398 28.2852C31.2148 28.9258 31.5039 29.6172 31.707 30.3594C31.918 31.1016 32.0234 31.8711 32.0234 32.668ZM28.6836 32.668C28.6836 31.9336 28.543 31.2422 28.2617 30.5938C27.9805 29.9375 27.5977 29.3711 27.1133 28.8945C26.6367 28.4102 26.0703 28.0273 25.4141 27.7461C24.7656 27.4648 24.0742 27.3242 23.3398 27.3242C22.5977 27.3242 21.9023 27.4648 21.2539 27.7461C20.6055 28.0273 20.0391 28.4102 19.5547 28.8945C19.0703 29.3711 18.6875 29.9375 18.4062 30.5938C18.125 31.2422 17.9844 31.9336 17.9844 32.668C17.9844 33.4023 18.125 34.0938 18.4062 34.7422C18.6875 35.3828 19.0703 35.9453 19.5547 36.4297C20.0391 36.9141 20.6055 37.2969 21.2539 37.5781C21.9023 37.8594 22.5977 38 23.3398 38C24.0742 38 24.7656 37.8594 25.4141 37.5781C26.0703 37.2969 26.6367 36.9141 27.1133 36.4297C27.5977 35.9453 27.9805 35.3828 28.2617 34.7422C28.543 34.0938 28.6836 33.4023 28.6836 32.668ZM37.6016 41H34.2383V24.1953H37.6016V32.5977L43.8594 24.1953H47.6797L42.3711 31.2852L47.6797 41H43.8594L40.168 34.2031L37.6016 37.6367V41Z" fill="#E6DFC7"/>
<path d="M32 2H62V32C62 48.5685 48.5685 62 32 62H2V32C2 15.4315 15.4315 2 32 2Z" stroke="#E6DFC7" stroke-width="4"/>
</svg>
